<svg width="11" height="16" viewBox="0 0 11 16" fill="none" xmlns="http://www.w3.org/2000/svg">
<path id="Vector 464" d="M0.9599 10.8983H0.336691V11.5216H0.9599V10.8983ZM10.1255 11.339C10.3689 11.0956 10.3689 10.7011 10.1255 10.4577L6.15942 6.49159C5.91605 6.24822 5.52145 6.24822 5.27807 6.49159C5.03469 6.73497 5.03469 7.12957 5.27807 7.37295L8.80348 10.8983L5.27807 14.4238C5.03469 14.6671 5.03469 15.0617 5.27807 15.3051C5.52145 15.5485 5.91605 15.5485 6.15942 15.3051L10.1255 11.339ZM0.336691 0.927002V10.8983H1.58311V0.927002H0.336691ZM0.9599 11.5216H9.68483V10.2751H0.9599V11.5216Z" fill="#FF718B"/>
</svg>
