<svg width="11" height="16" viewBox="0 0 11 16" fill="none" xmlns="http://www.w3.org/2000/svg">
<path id="Vector 464" d="M0.9599 10.6204H0.336691V11.2436H0.9599V10.6204ZM10.1255 11.0611C10.3689 10.8177 10.3689 10.4231 10.1255 10.1797L6.15942 6.21364C5.91605 5.97026 5.52145 5.97026 5.27807 6.21364C5.03469 6.45702 5.03469 6.85161 5.27807 7.09499L8.80348 10.6204L5.27807 14.1458C5.03469 14.3892 5.03469 14.7838 5.27807 15.0271C5.52145 15.2705 5.91605 15.2705 6.15942 15.0271L10.1255 11.0611ZM0.336691 0.649048V10.6204H1.58311V0.649048H0.336691ZM0.9599 11.2436H9.68483V9.99719H0.9599V11.2436Z" fill="#7165FF"/>
</svg>
