<svg xmlns="http://www.w3.org/2000/svg" width="16" height="17" viewBox="0 0 16 17" fill="none">
<path d="M3.24509 5.379C3.29596 5.29715 3.34887 5.21671 3.40375 5.13776H12.5962C12.6511 5.21671 12.704 5.29715 12.7549 5.379L14.3713 4.44247L15.1713 5.83304L13.401 6.85874C13.5307 7.33338 13.6 7.83315 13.6 8.34914V9.15199H16V10.7577H13.6C13.6 11.5231 13.4475 12.2528 13.1714 12.9179L15.1713 14.0766L14.3713 15.4672L12.3506 14.2964C11.4826 15.3698 10.2282 16.1156 8.8 16.3207V9.95483H7.2V16.3207C5.77174 16.1156 4.51732 15.3698 3.64937 14.2964L1.62872 15.4672L0.82872 14.0766L2.82864 12.9179C2.55249 12.2528 2.4 11.5231 2.4 10.7577H0V9.15199H2.4V8.34914C2.4 7.83315 2.46929 7.33338 2.59904 6.85874L0.82872 5.83304L1.62872 4.44247L3.24509 5.379ZM4.8 3.53206C4.8 1.75846 6.23269 0.320679 8 0.320679C9.76728 0.320679 11.2 1.75846 11.2 3.53206H4.8Z" fill="#392E5F"/>
</svg>