<svg width="800px" height="800px" viewBox="0 0 24 24" xmlns="http://www.w3.org/2000/svg">
    <defs>
        <linearGradient id="myGradient" x1="119.467" y1="114.533" x2="37.6962" y2="151.369" gradientUnits="userSpaceOnUse">
            <stop stop-color="#4D6DF4"/>
            <stop offset="0.49" stop-color="#AB33FA"/>
            <stop offset="1" stop-color="#FFA800"/>
        </linearGradient>
    </defs>
    <g>
        <path fill="none" d="M0 0h24v24H0z"/>
        <path fill-rule="nonzero" fill="url(#myGradient)" d="M12 2a9 9 0 0 1 9 9v7.5a3.5 3.5 0 0 1-6.39 1.976 2.999 2.999 0 0 1-5.223 0 3.5 3.5 0 0 1-6.382-1.783L3 18.499V11a9 9 0 0 1 9-9zm0 2a7 7 0 0 0-6.996 6.76L5 11v7.446l.002.138a1.5 1.5 0 0 0 2.645.88l.088-.116a2 2 0 0 1 3.393.142.999.999 0 0 0 1.74.003 2 2 0 0 1 3.296-.278l.097.130a1.5 1.5 0 0 0 2.733-.701L19 18.5V11a7 7 0 0 0-7-7zm0 8c1.105 0 2 1.12 2 2.5s-.895 2.5-2 2.5-2-1.12-2-2.5.895-2.5 2-2.5zM9.5 8a1.5 1.5 0 1 1 0 3 1.5 1.5 0 0 1 0-3zm5 0a1.5 1.5 0 1 1 0 3 1.5 1.5 0 0 1 0-3z"/>
    </g>
</svg>
