<svg xmlns="http://www.w3.org/2000/svg" width="19" height="19" viewBox="0 0 19 19" fill="w">
  <path d="M10.4247 0.320801C11.4376 0.322475 11.9509 0.327839 12.3945 0.341042L12.5692 0.346749C12.7709 0.353922 12.97 0.362922 13.2101 0.374173C14.1678 0.418427 14.8211 0.569929 15.3949 0.792687C15.9881 1.02145 16.4892 1.33046 16.9894 1.83073C17.4889 2.33099 17.798 2.83351 18.0275 3.42528C18.2494 3.9983 18.401 4.65232 18.446 5.6101C18.4567 5.85011 18.4653 6.0492 18.4725 6.25102L18.4781 6.42571C18.4913 6.86919 18.4973 7.38256 18.4992 8.39549L18.4999 9.06655C18.5 9.14855 18.5 9.23315 18.5 9.32045L18.4999 9.57435L18.4994 10.2455C18.4977 11.2584 18.4923 11.7718 18.4791 12.2152L18.4734 12.3899C18.4662 12.5918 18.4572 12.7909 18.446 13.0308C18.4017 13.9886 18.2494 14.6419 18.0275 15.2157C17.7987 15.809 17.4889 16.31 16.9894 16.8102C16.4892 17.3098 15.9859 17.6187 15.3949 17.8482C14.8211 18.0703 14.1678 18.2218 13.2101 18.2668C12.97 18.2775 12.7709 18.2862 12.5692 18.2932L12.3945 18.2989C11.9509 18.3121 11.4376 18.3181 10.4247 18.32L9.75359 18.3208C9.6716 18.3208 9.587 18.3208 9.49969 18.3208H9.2458L8.57464 18.3201C7.56175 18.3185 7.04839 18.3131 6.6049 18.2999L6.43022 18.2942C6.22839 18.287 6.0293 18.278 5.7893 18.2668C4.83151 18.2226 4.17899 18.0703 3.60448 17.8482C3.01195 17.6195 2.51018 17.3098 2.00992 16.8102C1.50965 16.31 1.20139 15.8067 0.971886 15.2157C0.749129 14.6419 0.598374 13.9886 0.553372 13.0308C0.54268 12.7909 0.533958 12.5918 0.526893 12.3899L0.521232 12.2152C0.508064 11.7718 0.502061 11.2584 0.500117 10.2455L0.5 8.39549C0.501674 7.38256 0.507029 6.86919 0.520233 6.42571L0.525948 6.25102C0.533121 6.0492 0.542122 5.85011 0.553372 5.6101C0.597617 4.65157 0.749129 3.99905 0.971886 3.42528C1.20064 2.83276 1.50965 2.33099 2.00992 1.83073C2.51018 1.33046 3.01271 1.02219 3.60448 0.792687C4.17825 0.569929 4.83077 0.419174 5.7893 0.374173C6.0293 0.363489 6.22839 0.354768 6.43022 0.347703L6.6049 0.342041C7.04839 0.328865 7.56175 0.322862 8.57464 0.320918L10.4247 0.320801ZM9.49969 4.82032C7.01298 4.82032 4.99952 6.83597 4.99952 9.32045C4.99952 11.8071 7.01517 13.8206 9.49969 13.8206C11.9864 13.8206 13.9998 11.805 13.9998 9.32045C13.9998 6.83378 11.9841 4.82032 9.49969 4.82032ZM9.49969 6.62039C10.991 6.62039 12.1998 7.82883 12.1998 9.32045C12.1998 10.8117 10.9913 12.0205 9.49969 12.0205C8.00843 12.0205 6.79958 10.8122 6.79958 9.32045C6.79958 7.82919 8.00798 6.62039 9.49969 6.62039ZM14.2249 3.47028C13.6045 3.47028 13.0998 3.97421 13.0998 4.59455C13.0998 5.2149 13.6037 5.71961 14.2249 5.71961C14.8452 5.71961 15.3499 5.21568 15.3499 4.59455C15.3499 3.97421 14.8443 3.4695 14.2249 3.47028Z" fill="#ffffff"/>
</svg>