<svg width="25" height="24" viewBox="0 0 25 24" fill="none" xmlns="http://www.w3.org/2000/svg">
<g id="&#240;&#159;&#166;&#134; icon &#34;instagram alt icon&#34;">
<path id="Vector" d="M24.4227 7.08371C24.408 6.07651 24.2215 5.07728 23.8643 4.13527C23.2392 2.52667 21.9665 1.25468 20.3552 0.631999C19.4236 0.282071 18.4387 0.0944673 17.4418 0.0731789C16.1597 0.0159664 15.7532 0 12.4987 0C9.24411 0 8.82697 8.92186e-08 7.5542 0.0731789C6.55864 0.0944673 5.57375 0.282071 4.64216 0.631999C3.03088 1.25468 1.75677 2.52667 1.13305 4.13527C0.782541 5.06531 0.593292 6.04856 0.574633 7.04247C0.517326 8.32376 0.5 8.72957 0.5 11.9787C0.5 15.2279 0.5 15.643 0.574633 16.915C0.594625 17.9102 0.782541 18.8921 1.13305 19.8248C1.75811 21.4321 3.03088 22.7041 4.64349 23.3268C5.57108 23.6887 6.55598 23.8936 7.55553 23.9255C8.83896 23.9827 9.24545 24 12.5 24C15.7546 24 16.1717 24 17.4445 23.9255C18.44 23.9055 19.4249 23.7179 20.3578 23.368C21.9691 22.744 23.2419 21.472 23.8669 19.8647C24.2175 18.9334 24.4054 17.9514 24.4254 16.9549C24.4827 15.6749 24.5 15.2691 24.5 12.0186C24.4973 8.76949 24.4973 8.35703 24.4227 7.08371ZM12.4907 18.1231C9.08685 18.1231 6.32941 15.3702 6.32941 11.9721C6.32941 8.5739 9.08685 5.82104 12.4907 5.82104C15.8918 5.82104 18.6519 8.5739 18.6519 11.9721C18.6519 15.3702 15.8918 18.1231 12.4907 18.1231ZM18.8972 7.02783C18.1015 7.02783 17.4605 6.38652 17.4605 5.59353C17.4605 4.80053 18.1015 4.15922 18.8972 4.15922C19.6901 4.15922 20.3325 4.80053 20.3325 5.59353C20.3325 6.38652 19.6901 7.02783 18.8972 7.02783Z" fill="white"/>
<path id="Vector_2" d="M12.4908 15.9677C14.7012 15.9677 16.493 14.1788 16.493 11.9721C16.493 9.76544 14.7012 7.97656 12.4908 7.97656C10.2804 7.97656 8.48859 9.76544 8.48859 11.9721C8.48859 14.1788 10.2804 15.9677 12.4908 15.9677Z" fill="white"/>
</g>
</svg>
