<svg width="25" height="24" viewBox="0 0 25 24" fill="none" xmlns="http://www.w3.org/2000/svg">
<g id="&#240;&#159;&#166;&#134; icon &#34;social linkedin&#34;">
<path id="Vector" d="M22.7223 0H2.27167C1.29367 0 0.5 0.775 0.5 1.72933V22.2683C0.5 23.224 1.29367 24 2.27167 24H22.7223C23.701 24 24.5 23.224 24.5 22.2683V1.72933C24.5 0.775 23.701 0 22.7223 0ZM7.618 20.4513H4.05667V8.99833H7.618V20.4513ZM5.83733 7.43233C4.69633 7.43233 3.774 6.50767 3.774 5.36767C3.774 4.22933 4.69633 3.30467 5.83733 3.30467C6.97567 3.30467 7.90033 4.22933 7.90033 5.36767C7.90033 6.50767 6.97567 7.43233 5.83733 7.43233ZM20.95 20.4513H17.3943V14.882C17.3943 13.5533 17.3683 11.845 15.544 11.845C13.6913 11.845 13.409 13.292 13.409 14.7857V20.4517H9.85067V8.99833H13.2657V10.5623H13.3143C13.7897 9.66233 14.951 8.71267 16.683 8.71267C20.285 8.71267 20.9503 11.084 20.9503 14.169L20.95 20.4513Z" fill="white"/>
</g>
</svg>
