<svg width="16" height="15" viewBox="0 0 16 15" fill="none" xmlns="http://www.w3.org/2000/svg">
<path id="Union" opacity="0.2" fill-rule="evenodd" clip-rule="evenodd" d="M14.5843 2.89773C15.0711 2.41097 15.0711 1.62178 14.5843 1.13503C14.0975 0.648269 13.3084 0.648269 12.8216 1.13503L7.97498 5.98165L2.9221 1.34984C2.41466 0.884686 1.62621 0.918966 1.16106 1.42641C0.695904 1.93385 0.730185 2.72229 1.23763 3.18745L6.21061 7.74602L1.44104 12.5156C0.954282 13.0023 0.954281 13.7915 1.44104 14.2783C1.92779 14.765 2.71698 14.765 3.20374 14.2783L8.04995 9.43208L13.1018 14.0629C13.6092 14.5281 14.3977 14.4938 14.8628 13.9864C15.328 13.4789 15.2937 12.6905 14.7863 12.2253L9.81432 7.66771L14.5843 2.89773Z" fill="black"/>
</svg>
